<svg width="12" height="8" viewBox="0 0 12 8" fill="none" xmlns="http://www.w3.org/2000/svg">
<path d="M4.36548 6.10024L10.0155 0.450244C10.1488 0.316911 10.3044 0.250244 10.4822 0.250244C10.6599 0.250244 10.8155 0.316911 10.9488 0.450244C11.0822 0.583578 11.1488 0.742022 11.1488 0.925578C11.1488 1.10913 11.0822 1.26736 10.9488 1.40024L4.83215 7.53358C4.69882 7.66691 4.54326 7.73358 4.36548 7.73358C4.18771 7.73358 4.03215 7.66691 3.89882 7.53358L1.03215 4.66691C0.898818 4.53358 0.834818 4.37536 0.840151 4.19224C0.845485 4.00913 0.91504 3.85069 1.04882 3.71691C1.1826 3.58313 1.34104 3.51647 1.52415 3.51691C1.70726 3.51736 1.86548 3.58402 1.99882 3.71691L4.36548 6.10024Z" fill="#333333"/>
</svg>
