<svg width="328" height="62" viewBox="0 0 328 62" fill="none" xmlns="http://www.w3.org/2000/svg">
<g clip-path="url(#clip0_325_16294)">
<path d="M153.651 14.9241C147.902 15.7699 142.111 16.4316 136.319 17.0684C130.528 17.7003 124.731 18.2923 118.922 18.8147C113.119 19.352 107.31 19.8595 101.495 20.347C95.6857 20.8296 89.8707 21.3172 84.0498 21.7301H83.9487L83.8536 21.7152L68.2102 18.1281L66.5394 17.745L68.1448 17.1928C73.5911 15.3222 79.0256 13.4416 84.5255 11.6555C87.2724 10.7649 90.0372 9.89927 92.8258 9.08833C95.6203 8.29231 98.4386 7.54604 101.299 6.90922C104.158 6.27241 107.042 5.72514 109.95 5.26743C112.857 4.82962 115.783 4.45151 118.708 4.14803C124.582 3.51619 130.504 3.36196 136.403 3.38684C142.307 3.42166 148.199 3.71519 154.068 4.15798C157.005 4.38186 159.936 4.64554 162.861 4.9739L163.961 5.10325C164.342 5.153 164.711 5.21768 165.073 5.28733C165.799 5.42664 166.512 5.58584 167.226 5.75002C168.653 6.07838 170.062 6.42664 171.471 6.78982C174.289 7.51619 177.09 8.26743 179.872 9.08335C181.264 9.49131 182.649 9.90425 184.028 10.347C184.718 10.5659 185.402 10.7948 186.086 11.0336C186.425 11.153 186.763 11.2774 187.102 11.4167C187.269 11.4863 187.435 11.556 187.608 11.6356C187.691 11.6754 187.774 11.7202 187.857 11.7699C187.899 11.7948 187.941 11.8246 187.988 11.8644C188.012 11.8893 188.036 11.9092 188.06 11.9391C188.072 11.964 188.089 11.9888 188.095 12.0137C188.107 12.0336 188.113 12.0635 188.101 12.1132C188.072 12.2227 188.042 12.2177 188.018 12.2426L187.947 12.3023C187.893 12.3421 187.857 12.352 187.81 12.3819C187.721 12.4316 187.637 12.4664 187.554 12.5013C187.382 12.5759 187.215 12.6356 187.043 12.7003C186.698 12.8246 186.359 12.9391 186.014 13.0485C185.325 13.2674 184.629 13.4764 183.933 13.6754C182.542 14.0784 181.145 14.4615 179.741 14.8396C176.941 15.5908 174.123 16.3023 171.298 16.9988C174.099 16.2376 176.887 15.4515 179.67 14.6555C181.061 14.2575 182.447 13.8495 183.826 13.4217C184.516 13.2077 185.2 12.9888 185.878 12.76C186.216 12.6455 186.555 12.5261 186.882 12.4018C187.043 12.3371 187.215 12.2724 187.364 12.2028C187.441 12.1679 187.519 12.1331 187.584 12.0933C187.614 12.0734 187.661 12.0535 187.673 12.0386C187.679 12.0336 187.691 12.0237 187.697 12.0187C187.709 12.0187 187.721 11.9839 187.691 12.0535C187.691 12.0834 187.691 12.0983 187.691 12.0983C187.691 12.1082 187.691 12.1132 187.703 12.1182C187.703 12.1182 187.691 12.1082 187.685 12.1033C187.661 12.0883 187.637 12.0684 187.602 12.0485C187.536 12.0087 187.465 11.9739 187.388 11.9391C187.233 11.8694 187.073 11.8047 186.906 11.7401C186.579 11.6157 186.24 11.4963 185.901 11.3819C185.224 11.153 184.534 10.944 183.844 10.7351C182.465 10.3222 181.067 9.92912 179.676 9.54604C176.882 8.78982 174.075 8.0535 171.257 7.36196C169.848 7.01868 168.433 6.68534 167.017 6.37191C166.31 6.21768 165.596 6.06843 164.889 5.93907C164.532 5.8744 164.181 5.8147 163.836 5.7749L162.748 5.65549C159.835 5.36196 156.91 5.12813 153.984 4.93907C151.059 4.75002 148.128 4.59082 145.19 4.49629C142.259 4.39181 139.322 4.32713 136.391 4.31221C130.528 4.31221 124.66 4.48136 118.856 5.12813C115.949 5.43659 113.053 5.82465 110.176 6.26743C107.298 6.72514 104.45 7.28236 101.626 7.91917C95.983 9.21768 90.4594 10.8694 84.9714 12.6256C79.4834 14.3819 74.043 16.2475 68.5907 18.0983L68.5253 17.163L84.1509 20.7998L83.9547 20.7848L101.406 19.551C107.221 19.1232 113.036 18.6804 118.845 18.2028C124.654 17.7202 130.463 17.2525 136.266 16.7152C142.069 16.1779 147.866 15.6107 153.645 14.9092L153.651 14.9241ZM218.99 9.21768C215.404 8.7948 211.819 8.34206 208.234 7.88932L186.74 5.14305L175.984 3.80972C172.392 3.37191 168.795 2.98883 165.21 2.56594C158.027 1.71519 150.785 1.0933 143.52 0.854497C136.254 0.615691 128.964 0.764945 121.716 1.36693C114.474 1.9739 107.28 3.0336 100.24 4.60077C93.1885 6.16295 86.3746 8.32216 79.6142 10.5062C72.8539 12.7152 66.147 15.0286 59.4818 17.4217L59.5947 17.3918C54.4159 18.2376 49.2847 19.2973 44.2248 20.551C41.6919 21.1679 39.1887 21.8644 36.6915 22.5809C34.2062 23.3271 31.7327 24.0933 29.2949 24.944C24.4194 26.6306 19.6449 28.5261 15.0547 30.7102C12.7656 31.8047 10.5122 32.959 8.33005 34.1978C6.15389 35.4416 4.01934 36.7401 2.03939 38.2177L1.94426 38.2923L2.01561 38.3868C2.69938 39.2973 3.41882 40.1779 4.14421 41.0585C4.86959 41.9341 5.60093 42.8097 6.34415 43.6804C7.8306 45.4167 9.323 47.148 10.8332 48.8744C9.37651 47.1232 7.92573 45.362 6.4928 43.5958L4.35231 40.9391C3.64476 40.0485 2.94316 39.158 2.28912 38.2475L2.25939 38.4117C4.23934 36.9888 6.40361 35.7251 8.59761 34.5212C10.7976 33.3222 13.0629 32.2077 15.3639 31.158C19.9719 29.0535 24.7345 27.1928 29.6101 25.5659C32.0419 24.745 34.5153 24.0037 36.9947 23.2873C39.486 22.5958 41.9833 21.9291 44.5102 21.3371C49.5582 20.1381 54.6716 19.1431 59.8207 18.3023L59.8801 18.2923L59.9396 18.2724C66.5989 15.9042 73.3117 13.6157 80.0661 11.4316C86.8265 9.26743 93.6106 7.14305 100.591 5.62564C107.571 4.10325 114.683 2.99878 121.865 2.38186C129.048 1.76494 136.278 1.59082 143.502 1.80475C147.111 1.9142 150.72 2.1132 154.317 2.39181C157.914 2.67539 161.512 3.01868 165.103 3.40176C168.7 3.78982 172.297 4.13808 175.889 4.54106L186.656 5.7749L197.424 7.0336L208.198 8.25251C211.789 8.65052 215.387 9.04355 218.984 9.41669C222.581 9.78982 226.184 10.1331 229.799 10.3769C226.196 10.0635 222.605 9.62564 219.019 9.20773L218.99 9.21768ZM20.0254 43.7152L23.5632 46.8246L23.9734 47.1878C23.9734 47.1878 23.9853 47.1978 23.9972 47.2028H24.0091L24.0151 47.2127C24.0151 47.2127 24.0091 47.2426 23.9675 47.0684C23.9318 46.9341 24.0864 46.76 24.0924 46.7649L24.1161 46.745C24.1161 46.745 24.1578 46.7202 24.1578 46.7152L24.1102 46.7351C24.0329 46.7649 23.9318 46.7998 23.8426 46.8296C23.4562 46.959 23.0578 47.0784 22.6594 47.1978L20.2454 47.8993C18.6282 48.357 16.999 48.7799 15.3699 49.2077C13.7407 49.6256 12.0997 50.0187 10.4586 50.3321C10.0484 50.4067 9.63812 50.4714 9.2457 50.5112C9.05544 50.5311 8.85923 50.5311 8.65112 50.5361C8.44897 50.5411 8.24086 50.5361 8.03276 50.5361C7.20035 50.5162 6.35604 50.4515 5.51769 50.3769C3.83503 50.2127 2.14642 49.9789 0.475649 49.7202L0.701589 50.0386C0.796722 49.7351 1.01077 49.4416 1.26644 49.163C1.52211 48.8893 1.82535 48.6306 2.14047 48.4067L2.08696 48.4316C3.54368 47.9391 4.99446 47.4266 6.43928 46.9092C4.935 47.2923 3.43666 47.6853 1.93832 48.0933H1.91453L1.8848 48.1182C1.51022 48.347 1.17725 48.5958 0.862126 48.8794C0.55889 49.1679 0.279437 49.4913 0.118901 49.8943L0.0178223 50.1431L0.338895 50.2127C2.00966 50.5709 3.69233 50.8694 5.40472 51.0883C6.26091 51.1978 7.12305 51.2873 8.00303 51.3271C8.22302 51.3371 8.44302 51.347 8.66896 51.3421C8.88301 51.3421 9.12084 51.347 9.35273 51.3271C9.81055 51.2923 10.2446 51.2276 10.6727 51.163C12.3851 50.8794 14.038 50.4714 15.6909 50.0684C17.3439 49.6605 18.9671 49.2028 20.5962 48.7351C21.4049 48.4963 22.2194 48.2625 23.0221 48.0038C23.4264 47.8744 23.8248 47.745 24.2351 47.6008C24.3361 47.561 24.4372 47.5261 24.5502 47.4814L24.6453 47.4416L24.7107 47.4067C24.7107 47.4067 24.7642 47.3769 24.788 47.357L24.8237 47.3271C24.8237 47.3271 24.9902 47.148 24.9604 47.0087C24.9248 46.8296 24.895 46.8446 24.9069 46.8495L24.895 46.8396L24.8772 46.8197L24.8356 46.7749L24.7523 46.6903C24.6869 46.6256 24.6513 46.6008 24.6156 46.5659L24.5026 46.4714L24.2767 46.2774C23.0637 45.2575 21.827 44.2674 20.5962 43.2724C18.1228 41.2923 15.6255 39.3222 13.0688 37.4067C15.352 39.546 17.7006 41.6406 20.0492 43.7202L20.0254 43.7152ZM23.4859 51.6107L27.9274 51.6903C30.8884 51.745 33.8494 51.7998 36.8104 51.8296H37.3218L37.1731 51.4067C36.6796 49.944 36.3764 48.3968 36.1861 46.8644C36.0018 45.3271 35.9483 43.7799 36.0315 42.2376L36.1207 41.0834L36.2575 39.9341C36.3823 39.1779 36.525 38.4316 36.7747 37.6953C37.2504 36.2276 37.9282 34.7998 38.8261 33.4764C39.7417 32.163 40.7941 30.9142 42.0546 29.8147C42.3579 29.5311 42.7087 29.2923 43.0357 29.0286L43.5351 28.6406C43.7016 28.5162 43.8919 28.4067 44.0702 28.2873L45.1464 27.5958L46.2999 26.9938C46.4961 26.8943 46.6805 26.7898 46.8767 26.6953L47.4891 26.4465L48.708 25.949L49.9804 25.551L50.6166 25.352C50.8306 25.2973 51.0566 25.2525 51.2766 25.2077L52.5965 24.9241C53.0365 24.8246 53.4943 24.7998 53.9403 24.7301C54.3922 24.6754 54.8381 24.6057 55.29 24.5709L56.6575 24.5112C60.2963 24.3371 63.9887 24.9042 67.2232 26.2973C70.4636 27.6804 73.2047 29.8445 75.2322 32.4067C76.237 33.6903 77.1051 35.0634 77.6937 36.5112C78.2586 37.9639 78.5737 39.5062 78.758 41.0485C79.1148 44.1431 78.8234 47.2824 78.2348 50.3719C79.0613 47.3172 79.4834 44.1679 79.2991 41.0137C79.198 39.4366 78.9483 37.8644 78.4072 36.3222C77.8424 34.7898 77.01 33.347 75.9992 31.9938C73.9717 29.3023 71.1712 26.954 67.7524 25.4515C64.3514 23.9391 60.4271 23.2774 56.6099 23.4565L55.177 23.5112C54.7013 23.546 54.2257 23.6207 53.75 23.6754C53.2743 23.745 52.7927 23.7699 52.329 23.8744L50.9317 24.1729C50.6998 24.2227 50.462 24.2674 50.236 24.3271L49.5582 24.5361L48.2026 24.954C47.7685 25.1232 47.3345 25.3072 46.9004 25.4863L46.2524 25.755C46.0443 25.8545 45.8421 25.9689 45.634 26.0734L44.4092 26.7202L43.2676 27.4615C43.0773 27.5858 42.8811 27.7052 42.7027 27.8396L42.1735 28.2525C41.8287 28.5361 41.4541 28.7948 41.139 29.0933L40.1817 29.9988C39.8547 30.2973 39.599 30.6356 39.3017 30.954L38.8736 31.4366C38.7369 31.6057 38.618 31.7749 38.4871 31.949C38.2434 32.2923 37.9699 32.6256 37.7499 32.9839C36.8223 34.3918 36.1326 35.9043 35.6569 37.4615C35.4072 38.2376 35.2645 39.0436 35.1515 39.8346C35.1099 40.2326 35.0624 40.6256 35.0326 41.0237L34.9732 42.2127C34.9256 43.7998 35.0267 45.3868 35.2586 46.959C35.4905 48.5361 35.8532 50.0834 36.4358 51.6207L36.8045 51.1978C33.8435 51.2326 30.8825 51.2824 27.9215 51.3371L23.4799 51.4167L19.0384 51.5162L23.4799 51.6157L23.4859 51.6107ZM22.3146 29.4565C20.7687 30.0386 19.2584 30.6704 17.7601 31.3271C16.2558 31.9789 14.7872 32.6754 13.3245 33.3868C12.5932 33.7401 11.8678 34.1082 11.1484 34.4764C10.423 34.8545 9.72137 35.2077 8.98409 35.6306L7.43818 36.5112L9.30516 36.2724L14.5434 35.6057C16.2855 35.3669 18.0336 35.1431 19.7698 34.8893C21.5119 34.6455 23.2481 34.3819 24.9842 34.1182L27.5885 33.6903C28.4566 33.546 29.3247 33.4067 30.1809 33.2177C28.4328 33.4167 26.6788 33.5858 24.9248 33.76L19.6687 34.3222L14.4185 34.9192L9.1803 35.556L9.50137 36.2028C10.8451 35.4366 12.3197 34.6953 13.7407 33.959C15.1737 33.2227 16.6244 32.5112 18.0871 31.8047C19.5498 31.1082 21.0124 30.4117 22.5048 29.76C23.9853 29.0933 25.5015 28.4764 27.0355 27.8843C25.4302 28.3271 23.8724 28.8843 22.3205 29.4515L22.3146 29.4565ZM85.0249 17.6704L85.0368 17.9192C86.4638 17.0137 87.9919 16.148 89.6091 15.6057C90.0134 15.4913 90.4177 15.3769 90.828 15.3669C91.0242 15.3421 91.2561 15.352 91.4761 15.347C91.6961 15.3421 91.9161 15.347 92.142 15.357C93.0339 15.3769 93.9436 15.4366 94.8474 15.4814L100.282 15.8396C102.095 15.959 103.915 16.0734 105.74 16.1381C103.956 15.8047 102.155 15.546 100.353 15.3122C99.4494 15.1978 98.5457 15.0933 97.6419 15.0038C96.7381 14.9092 95.8284 14.8296 94.9128 14.7699C93.9971 14.7052 93.0874 14.6505 92.1599 14.6406C91.928 14.6406 91.6961 14.6306 91.4583 14.6406C91.2204 14.6505 90.9945 14.6406 90.7388 14.6704C90.2334 14.7003 89.7637 14.8495 89.3178 14.9938C88.4378 15.3072 87.647 15.7251 86.8978 16.1829C86.1487 16.6406 85.4471 17.1331 84.7811 17.6704L84.6028 17.8147L84.793 17.9192C85.5541 18.347 86.3211 18.7699 87.1059 19.1729C86.4222 18.6555 85.7265 18.158 85.0249 17.6605V17.6704ZM143.579 7.38684C143.924 8.1729 144.287 8.94902 144.649 9.73012L145.749 12.0585C145.934 12.4465 146.118 12.8346 146.29 13.2276C146.475 13.6157 146.635 14.0087 146.796 14.4067C146.659 13.5709 146.362 12.7649 146.064 11.964C145.761 11.163 145.41 10.3769 145.054 9.59579C144.685 8.81967 144.305 8.04355 143.888 7.27738C143.478 6.51619 143.05 5.75499 142.574 5.0137C142.883 5.8147 143.234 6.59579 143.579 7.38186V7.38684Z" fill="url(#paint0_linear_325_16294)"/>
<path d="M99.1283 52.322C96.1614 52.322 93.569 51.8692 91.3631 50.9638C89.1572 50.0583 87.4567 48.7996 86.2616 47.1827C85.0665 45.5707 84.4719 43.7051 84.4719 41.5956C84.4719 39.4862 84.9179 37.5309 85.8038 35.7449C86.6897 33.9588 87.9383 32.4066 89.5496 31.0931C91.1609 29.7797 93.0814 28.7648 95.3111 28.0484C97.5467 27.327 100.02 26.9688 102.743 26.9688C105.467 26.9688 107.821 27.3618 109.902 28.1528C111.983 28.9439 113.535 30.0782 114.564 31.5658L108.612 35.5359C107.946 34.6056 107.078 33.8991 106.008 33.4115C104.937 32.924 103.671 32.6802 102.202 32.6802C100.734 32.6802 99.5029 32.8891 98.3494 33.3071C97.1959 33.725 96.2089 34.317 95.3706 35.0832C94.5382 35.8493 93.902 36.7498 93.456 37.7847C93.0101 38.8195 92.7901 39.9389 92.7901 41.1429C92.7901 42.2324 93.0755 43.1926 93.6463 44.0135C94.2171 44.8394 95.0317 45.4762 96.1019 45.9289C97.1721 46.3817 98.4386 46.6105 99.9132 46.6105C101.215 46.6105 102.47 46.3916 103.677 45.9488C104.884 45.5061 106.002 44.7896 107.024 43.7896L111.894 47.7946C110.259 49.4414 108.368 50.6105 106.234 51.2971C104.099 51.9837 101.727 52.322 99.1164 52.322H99.1283Z" fill="#F9F9F9"/>
<path d="M109.95 51.8347L128.637 27.4565H136.753L143.787 51.8347H135.588L130.385 30.7302H133.632L118.648 51.8347H109.95ZM118.107 47.0983L121.437 42.0138H135.671L136.587 47.0983H118.107Z" fill="#F9F9F9"/>
<path d="M146.16 51.8347L151.986 27.4565H164.431C168.177 27.4565 171.072 28.1431 173.112 29.5113C175.151 30.8794 176.174 32.7849 176.174 35.2227C176.174 37.2675 175.585 39.0486 174.402 40.571C173.225 42.0934 171.554 43.2675 169.39 44.1033C167.226 44.9391 164.675 45.357 161.732 45.357H152.284L156.654 42.3968L154.406 51.8347H146.165H146.16ZM156.44 43.1978L153.568 40.0287H162.1C163.932 40.0287 165.347 39.6705 166.346 38.9491C167.344 38.2277 167.844 37.2078 167.844 35.8844C167.844 34.8645 167.44 34.1083 166.637 33.6207C165.834 33.1332 164.71 32.8894 163.266 32.8894H155.316L159.728 29.6157L156.44 43.1978ZM164.431 51.8347L158.479 42.9541H167.011L173.046 51.8347H164.431Z" fill="#F9F9F9"/>
<path d="M178.832 51.8347L184.659 27.4565H196.978C200.754 27.4565 203.667 28.1431 205.719 29.5113C207.77 30.8794 208.799 32.8098 208.799 35.2924C208.799 37.3371 208.216 39.1232 207.051 40.6555C205.885 42.1879 204.22 43.372 202.056 44.2078C199.892 45.0436 197.341 45.4615 194.398 45.4615H184.95L189.32 42.3968L187.073 51.8347H178.832ZM189.112 43.1978L186.24 40.0287H194.772C196.574 40.0287 197.977 39.6705 198.976 38.9491C199.975 38.2277 200.475 37.2078 200.475 35.8844C200.475 34.8645 200.07 34.1083 199.268 33.6207C198.465 33.1332 197.341 32.8894 195.896 32.8894H187.988L192.358 29.6157L189.112 43.1978Z" fill="url(#paint1_linear_325_16294)"/>
<path d="M209.09 51.8347L214.917 27.4565H223.158L218.663 46.367H232.564L231.232 51.8347H209.09Z" fill="url(#paint2_linear_325_16294)"/>
<path d="M231.274 51.8347L249.961 27.4565H258.077L265.111 51.8347H256.912L251.709 30.7302H254.956L239.972 51.8347H231.274ZM239.431 47.0983L242.761 42.0138H256.995L257.911 47.0983H239.431Z" fill="url(#paint3_linear_325_16294)"/>
<path d="M267.484 51.8347L273.311 27.4565H280.095L291.873 43.7551L289.043 43.6854L292.914 27.4565H300.988L295.161 51.8347H288.377L276.64 35.5361L279.429 35.6058L275.558 51.8347H267.484Z" fill="url(#paint4_linear_325_16294)"/>
<path d="M311.893 52.3222C310.228 52.3222 308.635 52.2127 307.106 51.9889C305.578 51.765 304.193 51.4565 302.944 51.0486C301.696 50.6406 300.626 50.1978 299.74 49.7103L302.986 44.556C303.985 45.0685 305.019 45.5013 306.084 45.8645C307.154 46.2227 308.242 46.4963 309.354 46.6854C310.466 46.8695 311.572 46.964 312.684 46.964C313.796 46.964 314.64 46.8794 315.389 46.7053C316.138 46.5312 316.709 46.2824 317.095 45.959C317.482 45.6356 317.678 45.2525 317.678 44.8098C317.678 44.3222 317.422 43.9341 316.911 43.6406C316.4 43.352 315.722 43.1033 314.895 42.8943C314.063 42.6854 313.141 42.4714 312.125 42.2525C311.114 42.0336 310.097 41.765 309.086 41.4515C308.076 41.1381 307.154 40.7451 306.316 40.2675C305.483 39.7899 304.811 39.1829 304.3 38.4416C303.789 37.7003 303.533 36.7799 303.533 35.6904C303.533 33.9242 304.104 32.3918 305.239 31.0933C306.375 29.7948 307.992 28.7849 310.085 28.0635C312.178 27.3421 314.658 26.9839 317.518 26.9839C319.599 26.9839 321.543 27.163 323.344 27.5212C325.146 27.8794 326.704 28.3968 328.006 29.0734L325.009 34.1928C323.874 33.5909 322.613 33.1282 321.246 32.8147C319.872 32.5013 318.463 32.3471 317.018 32.3471C315.906 32.3471 314.961 32.4515 314.17 32.6605C313.379 32.8695 312.785 33.153 312.38 33.5112C311.976 33.8695 311.774 34.2724 311.774 34.7152C311.774 35.1779 312.024 35.561 312.523 35.8645C313.023 36.168 313.694 36.4217 314.539 36.6307C315.383 36.8396 316.317 37.0535 317.327 37.2724C318.338 37.4914 319.343 37.7501 320.348 38.0386C321.347 38.3272 322.274 38.7103 323.136 39.1879C323.998 39.6655 324.676 40.2625 325.176 40.9789C325.675 41.7003 325.925 42.5909 325.925 43.6605C325.925 45.4018 325.354 46.9242 324.218 48.2227C323.083 49.5212 321.46 50.5312 319.349 51.2525C317.238 51.9739 314.759 52.3321 311.899 52.3321L311.893 52.3222Z" fill="url(#paint5_linear_325_16294)"/>
<path d="M223.027 19.1777L227.736 10.4712H229.205L233.932 19.1777H232.374L228.164 11.1677H228.759L224.549 19.1777H223.021H223.027ZM225.037 16.9986L225.435 16.0035H231.292L231.726 16.9986H225.037Z" fill="#F9F9F9"/>
<path d="M241.649 19.2772C240.282 19.2772 239.205 18.9488 238.427 18.2921C237.642 17.6354 237.255 16.6801 237.255 15.4214V10.4712H238.742V15.3717C238.742 16.3418 238.997 17.0533 239.509 17.4961C240.02 17.9389 240.739 18.1677 241.673 18.1677C242.606 18.1677 243.338 17.9438 243.849 17.4961C244.36 17.0483 244.616 16.3369 244.616 15.3717V10.4712H246.055V15.4214C246.055 16.6801 245.669 17.6403 244.89 18.2921C244.111 18.9488 243.035 19.2772 241.655 19.2772H241.649Z" fill="#F9F9F9"/>
<path d="M254.213 19.2771C253.422 19.2771 252.661 19.1776 251.935 18.9737C251.21 18.7697 250.645 18.506 250.223 18.1826L250.77 17.2125C251.168 17.501 251.674 17.7448 252.286 17.9339C252.899 18.1229 253.541 18.2224 254.207 18.2224C254.813 18.2224 255.301 18.1627 255.675 18.0483C256.05 17.9339 256.329 17.7747 256.508 17.5707C256.686 17.3667 256.775 17.1378 256.775 16.8791C256.775 16.5806 256.656 16.3418 256.424 16.1577C256.193 15.9737 255.889 15.8294 255.515 15.715C255.14 15.6005 254.736 15.506 254.29 15.4214C253.844 15.3368 253.398 15.2423 252.946 15.1279C252.494 15.0184 252.084 14.8742 251.715 14.7C251.347 14.5259 251.044 14.2921 250.818 13.9985C250.592 13.705 250.473 13.3269 250.473 12.8592C250.473 12.3916 250.615 11.9985 250.895 11.6204C251.174 11.2423 251.614 10.9388 252.203 10.71C252.792 10.4811 253.541 10.3667 254.456 10.3667C255.063 10.3667 255.657 10.4314 256.252 10.5657C256.847 10.7 257.364 10.8891 257.798 11.1378L257.304 12.1329C256.859 11.8841 256.389 11.705 255.889 11.5906C255.396 11.4762 254.914 11.4214 254.45 11.4214C253.868 11.4214 253.386 11.4811 253.012 11.6105C252.637 11.7349 252.358 11.899 252.185 12.108C252.013 12.3169 251.924 12.5458 251.924 12.8045C251.924 13.113 252.042 13.3567 252.274 13.5359C252.506 13.7199 252.809 13.8642 253.184 13.9737C253.553 14.0831 253.963 14.1776 254.409 14.2672C254.855 14.3518 255.301 14.4513 255.753 14.5607C256.205 14.6702 256.615 14.8095 256.989 14.9836C257.358 15.1577 257.661 15.3916 257.887 15.6801C258.113 15.9687 258.232 16.3418 258.232 16.7995C258.232 17.2572 258.089 17.6453 257.804 18.0234C257.519 18.4015 257.073 18.705 256.472 18.9339C255.872 19.1627 255.116 19.2771 254.207 19.2771H254.213Z" fill="#F9F9F9"/>
<path d="M264.41 19.1777V11.5508H260.842V10.4712H269.452V11.5508H265.884V19.1777H264.41Z" fill="#F9F9F9"/>
<path d="M273.15 19.1777V10.4712H277.211C278.121 10.4712 278.9 10.5906 279.542 10.8344C280.184 11.0732 280.683 11.4214 281.028 11.8792C281.373 12.3369 281.551 12.8792 281.551 13.506C281.551 14.1329 281.379 14.6752 281.028 15.1279C280.683 15.5806 280.184 15.9239 279.542 16.1677C278.9 16.4065 278.121 16.5259 277.211 16.5259H273.971L274.636 15.9538V19.1777H273.15ZM274.636 16.0782L273.971 15.4662H277.169C278.121 15.4662 278.84 15.2921 279.334 14.9488C279.821 14.6055 280.071 14.1229 280.071 13.501C280.071 12.8792 279.827 12.3966 279.334 12.0583C278.84 11.7199 278.121 11.5458 277.169 11.5458H273.971L274.636 10.9239V16.0732V16.0782ZM280.107 19.1777L277.461 16.0185H279.048L281.724 19.1777H280.107Z" fill="#F9F9F9"/>
<path d="M284.459 19.1777L289.174 10.4712H290.643L295.369 19.1777H293.812L289.602 11.1677H290.197L285.987 19.1777H284.453H284.459ZM286.469 16.9986L286.873 16.0035H292.73L293.158 16.9986H286.469Z" fill="#F9F9F9"/>
<path d="M298.996 19.1777V10.4712H300.483V18.0981H306.113V19.1777H298.996Z" fill="#F9F9F9"/>
<path d="M309.907 19.1777V10.4712H311.393V19.1777H309.907Z" fill="#F9F9F9"/>
<path d="M315.02 19.1777L319.735 10.4712H321.204L325.931 19.1777H324.373L320.163 11.1677H320.758L316.548 19.1777H315.014H315.02ZM317.03 16.9986L317.434 16.0035H323.291L323.719 16.9986H317.03Z" fill="#F9F9F9"/>
<path d="M84.6084 61.4017C77.5567 61.5459 70.505 61.6156 63.4592 61.6703L42.31 61.7499L21.1608 61.6703L10.5832 61.5708L0.00561523 61.3967L10.5832 61.2226L21.1608 61.1231L42.31 61.0435L63.4592 61.1231C70.5109 61.1778 77.5626 61.2474 84.6084 61.3917V61.4017Z" fill="url(#paint6_linear_325_16294)"/>
</g>
<defs>
<linearGradient id="paint0_linear_325_16294" x1="-1.51317e-05" y1="26.2923" x2="229.769" y2="26.2923" gradientUnits="userSpaceOnUse">
<stop stop-color="#F24D60"/>
<stop offset="1" stop-color="#7D0009"/>
</linearGradient>
<linearGradient id="paint1_linear_325_16294" x1="152.896" y1="122.282" x2="314.094" y2="-69.0482" gradientUnits="userSpaceOnUse">
<stop stop-color="#7D0009"/>
<stop offset="1" stop-color="#F24D60"/>
</linearGradient>
<linearGradient id="paint2_linear_325_16294" x1="152.896" y1="122.282" x2="314.094" y2="-69.0482" gradientUnits="userSpaceOnUse">
<stop stop-color="#7D0009"/>
<stop offset="1" stop-color="#F24D60"/>
</linearGradient>
<linearGradient id="paint3_linear_325_16294" x1="152.896" y1="122.282" x2="314.094" y2="-69.0481" gradientUnits="userSpaceOnUse">
<stop stop-color="#7D0009"/>
<stop offset="1" stop-color="#F24D60"/>
</linearGradient>
<linearGradient id="paint4_linear_325_16294" x1="152.896" y1="122.282" x2="314.094" y2="-69.0481" gradientUnits="userSpaceOnUse">
<stop stop-color="#7D0009"/>
<stop offset="1" stop-color="#F24D60"/>
</linearGradient>
<linearGradient id="paint5_linear_325_16294" x1="152.896" y1="122.282" x2="314.095" y2="-69.0481" gradientUnits="userSpaceOnUse">
<stop stop-color="#7D0009"/>
<stop offset="1" stop-color="#F24D60"/>
</linearGradient>
<linearGradient id="paint6_linear_325_16294" x1="-0.000330565" y1="61.4017" x2="84.6084" y2="61.4017" gradientUnits="userSpaceOnUse">
<stop stop-color="#F24D60"/>
<stop offset="1" stop-color="#7D0009"/>
</linearGradient>
<clipPath id="clip0_325_16294">
<rect width="328" height="61" fill="white" transform="translate(0 0.75)"/>
</clipPath>
</defs>
</svg>
