<svg width="32" height="32" viewBox="0 0 32 32" fill="none" xmlns="http://www.w3.org/2000/svg">
<g clip-path="url(#clip0_325_18539)">
<path d="M16 32C24.8366 32 32 24.8366 32 16C32 7.16344 24.8366 0 16 0C7.16344 0 0 7.16344 0 16C0 24.8366 7.16344 32 16 32Z" fill="white"/>
<path d="M3.30758 6.25891C2.05077 7.8941 1.10308 9.77879 0.55127 11.8262H8.8749L3.30758 6.25891Z" fill="#0052B4"/>
<path d="M31.449 11.8262C30.8972 9.77879 29.9494 7.8941 28.6927 6.25891L23.1255 11.8262H31.449Z" fill="#0052B4"/>
<path d="M0.55127 20.1741C1.10314 22.2214 2.05083 24.1061 3.30758 25.7413L8.87471 20.1741H0.55127Z" fill="#0052B4"/>
<path d="M25.7413 3.30764C24.1061 2.05083 22.2215 1.10314 20.1741 0.55127V8.87483L25.7413 3.30764Z" fill="#0052B4"/>
<path d="M6.25903 28.6926C7.89422 29.9494 9.77891 30.8971 11.8263 31.449V23.1255L6.25903 28.6926Z" fill="#0052B4"/>
<path d="M11.8262 0.55127C9.77885 1.10314 7.89416 2.05083 6.25903 3.30758L11.8262 8.87477V0.55127Z" fill="#0052B4"/>
<path d="M20.1741 31.449C22.2214 30.8971 24.1061 29.9494 25.7413 28.6927L20.1741 23.1255V31.449Z" fill="#0052B4"/>
<path d="M23.1255 20.1741L28.6927 25.7413C29.9494 24.1062 30.8972 22.2214 31.449 20.1741H23.1255Z" fill="#0052B4"/>
<path d="M31.8646 13.9131H18.0871H18.087V0.135438C17.4038 0.0465 16.7073 0 16 0C15.2926 0 14.5962 0.0465 13.9131 0.135438V13.9129V13.913H0.135438C0.0465 14.5962 0 15.2927 0 16C0 16.7074 0.0465 17.4038 0.135438 18.0869H13.9129H13.913V31.8646C14.5962 31.9535 15.2926 32 16 32C16.7073 32 17.4038 31.9536 18.0869 31.8646V18.0871V18.087H31.8646C31.9535 17.4038 32 16.7074 32 16C32 15.2927 31.9535 14.5962 31.8646 13.9131V13.9131Z" fill="#D80027"/>
<path d="M20.1741 20.1741L27.3138 27.3139C27.6422 26.9856 27.9554 26.6424 28.2543 26.2867L22.1417 20.1741H20.1741V20.1741Z" fill="#D80027"/>
<path d="M11.8261 20.1741H11.826L4.68628 27.3138C5.01453 27.6421 5.35772 27.9554 5.71347 28.2543L11.8261 22.1415V20.1741Z" fill="#D80027"/>
<path d="M11.8259 11.8261V11.826L4.68611 4.68616C4.35773 5.01441 4.04448 5.35759 3.74561 5.71334L9.85829 11.826H11.8259V11.8261Z" fill="#D80027"/>
<path d="M20.1741 11.8262L27.3139 4.68629C26.9856 4.35791 26.6424 4.04466 26.2867 3.74585L20.1741 9.85854V11.8262Z" fill="#D80027"/>
</g>
<defs>
<clipPath id="clip0_325_18539">
<rect width="32" height="32" fill="white"/>
</clipPath>
</defs>
</svg>
