<svg width="28" height="21" viewBox="0 0 28 21" fill="none" xmlns="http://www.w3.org/2000/svg">
<path d="M6.88649 20.3462C5.12072 20.3462 3.53153 19.6282 2.11892 18.1923C0.706307 16.7052 0 14.5256 0 11.6538C0 8.37177 0.857655 5.70512 2.57297 3.65385C4.33874 1.55128 6.83603 0.5 10.0649 0.5C11.2252 0.5 12.1333 0.576922 12.7892 0.730765V4.26923C12.0829 4.16666 11.1748 4.11538 10.0649 4.11538C8.34952 4.11538 6.96216 4.70512 5.9027 5.88461C4.8937 6.91025 4.31351 8.26923 4.16216 9.96154C4.81802 9.141 5.87748 8.73077 7.34054 8.73077C8.85405 8.73077 10.1405 9.26923 11.2 10.3462C12.2595 11.3718 12.7892 12.7308 12.7892 14.4231C12.7892 16.1667 12.2343 17.6025 11.1243 18.7308C10.0144 19.8077 8.60183 20.3462 6.88649 20.3462ZM21.9459 20.3462C20.1802 20.3462 18.591 19.6282 17.1784 18.1923C15.7657 16.7052 15.0595 14.5256 15.0595 11.6538C15.0595 8.37177 15.9171 5.70512 17.6324 3.65385C19.3982 1.55128 21.8955 0.5 25.1243 0.5C26.2847 0.5 27.1928 0.576922 27.8486 0.730765V4.26923C27.1424 4.16666 26.2343 4.11538 25.1243 4.11538C23.409 4.11538 22.0216 4.70512 20.9622 5.88461C19.9532 6.91025 19.373 8.26923 19.2216 9.96154C19.8775 9.141 20.937 8.73077 22.4 8.73077C23.9135 8.73077 25.2 9.26923 26.2595 10.3462C27.3189 11.3718 27.8486 12.7308 27.8486 14.4231C27.8486 16.1667 27.2937 17.6025 26.1838 18.7308C25.0738 19.8077 23.6613 20.3462 21.9459 20.3462Z" fill="#BC3149"/>
</svg>
